<svg width="275" height="229" viewBox="0 0 275 229" fill="none" xmlns="http://www.w3.org/2000/svg">
<path d="M62.9102 65.27L72.9202 58.04H94.1001V125.76L90.0002 129.38L114.73 143.75V36.72H62.9102V65.27Z" fill="white"/>
<path d="M138.18 0H53.1699V29.36L63.6299 22.14H126.23V147.71L138.18 154.75L150.13 147.71V22.14H212.73L223.19 29.36V0H138.18Z" fill="white"/>
<path d="M161.63 143.75L186.36 129.38L182.26 125.76V58.04H203.45L213.45 65.27V36.72H161.63V143.75Z" fill="white"/>
<path d="M9.68999 192.93V168.37H0V162.66H26.38V168.37H16.69V192.93H9.68999Z" fill="white"/>
<path d="M45.2799 193.45C42.8899 193.45 40.6699 193.06 38.6399 192.28C36.6099 191.5 34.8499 190.41 33.3599 188.99C31.8799 187.58 30.7199 185.92 29.8999 184.02C29.0799 182.12 28.6699 180.04 28.6699 177.79C28.6699 175.54 29.0799 173.47 29.8999 171.56C30.7199 169.66 31.8799 168 33.3799 166.59C34.8799 165.18 36.6399 164.08 38.6599 163.3C40.6799 162.52 42.8699 162.13 45.2299 162.13C47.5899 162.13 49.8199 162.52 51.8199 163.3C53.8199 164.08 55.5699 165.17 57.0499 166.59C58.5299 168 59.6899 169.65 60.5299 171.54C61.3699 173.43 61.7799 175.51 61.7799 177.79C61.7799 180.07 61.3599 182.12 60.5299 184.04C59.6899 185.96 58.5299 187.61 57.0499 189.01C55.5699 190.41 53.8199 191.5 51.8199 192.27C49.8199 193.05 47.6299 193.44 45.2699 193.44L45.2799 193.45ZM45.2399 187.48C46.5899 187.48 47.8399 187.25 48.9799 186.79C50.1199 186.33 51.1199 185.67 51.9799 184.8C52.8499 183.93 53.5199 182.91 53.9899 181.73C54.4699 180.55 54.6999 179.24 54.6999 177.8C54.6999 176.36 54.4599 175.05 53.9899 173.86C53.5099 172.68 52.8499 171.65 51.9999 170.79C51.1499 169.93 50.1499 169.26 48.9999 168.8C47.8499 168.34 46.5899 168.11 45.2399 168.11C43.8899 168.11 42.6399 168.34 41.4999 168.8C40.3599 169.26 39.3599 169.92 38.4899 170.79C37.6199 171.66 36.9499 172.68 36.4799 173.86C35.9999 175.04 35.7699 176.35 35.7699 177.8C35.7699 179.25 36.0099 180.52 36.4799 181.71C36.9499 182.9 37.6199 183.94 38.4699 184.8C39.3199 185.67 40.3199 186.33 41.4699 186.79C42.6199 187.25 43.8799 187.48 45.2299 187.48H45.2399Z" fill="white"/>
<path d="M67.9399 192.93V162.66H81.0399C83.7499 162.66 86.0799 163.1 88.0399 163.98C89.9999 164.86 91.5099 166.12 92.5799 167.76C93.6499 169.4 94.1799 171.36 94.1799 173.64C94.1799 175.92 93.6499 177.83 92.5799 179.48C91.5099 181.12 89.9999 182.38 88.0399 183.26C86.0799 184.14 83.7399 184.58 81.0399 184.58H71.8299L74.9399 181.42V192.92H67.9399V192.93ZM74.9399 182.2L71.8299 178.87H80.6499C82.8099 178.87 84.4299 178.41 85.4899 177.49C86.5599 176.57 87.0899 175.28 87.0899 173.64C87.0899 172 86.5599 170.67 85.4899 169.75C84.4199 168.83 82.8099 168.37 80.6499 168.37H71.8299L74.9399 165.04V182.21V182.2Z" fill="white"/>
<path d="M105.47 192.93V168.37H95.7798V162.66H122.16V168.37H112.47V192.93H105.47Z" fill="white"/>
<path d="M121.3 192.93L134.79 162.66H141.71L155.24 192.93H147.89L136.82 166.21H139.59L128.48 192.93H121.3ZM128.05 186.44L129.91 181.12H145.48L147.38 186.44H128.05Z" fill="white"/>
<path d="M159.27 192.93V162.66H166.27V187.22H181.45V192.93H159.27Z" fill="white"/>
<path d="M193.21 187.31H209.68V192.93H186.24V162.66H209.11V168.28H193.2V187.31H193.21ZM192.69 174.85H207.26V180.3H192.69V174.85Z" fill="white"/>
<path d="M216.13 192.93V162.66H221.92L239.78 184.45H236.97V162.66H243.89V192.93H238.14L220.24 171.14H223.05V192.93H216.13Z" fill="white"/>
<path d="M258.2 192.93V168.37H248.51V162.66H274.89V168.37H265.2V192.93H258.2Z" fill="white"/>
<path d="M58.4499 228.02L70.8299 200.67H74.6999L87.1199 228.02H83.0199L71.9599 202.86H73.5199L62.4599 228.02H58.4399H58.4499ZM63.7199 221.19L64.7699 218.07H80.1599L81.2899 221.19H63.7099H63.7199Z" fill="white"/>
<path d="M100.8 228.34C98.69 228.34 96.75 228 94.98 227.3C93.21 226.61 91.67 225.63 90.37 224.37C89.07 223.11 88.05 221.63 87.32 219.94C86.59 218.25 86.23 216.38 86.23 214.35C86.23 212.32 86.59 210.46 87.32 208.76C88.05 207.07 89.07 205.59 90.39 204.33C91.71 203.07 93.25 202.09 95.02 201.4C96.79 200.71 98.74 200.36 100.88 200.36C103.02 200.36 105.02 200.71 106.82 201.42C108.62 202.12 110.14 203.18 111.39 204.58L108.97 207C107.85 205.91 106.63 205.11 105.32 204.6C104 204.09 102.58 203.84 101.04 203.84C99.5 203.84 98.03 204.1 96.68 204.62C95.34 205.14 94.18 205.87 93.2 206.81C92.22 207.75 91.47 208.86 90.93 210.15C90.4 211.44 90.13 212.84 90.13 214.35C90.13 215.86 90.4 217.22 90.93 218.51C91.46 219.8 92.22 220.92 93.2 221.87C94.18 222.82 95.33 223.56 96.66 224.08C97.99 224.6 99.43 224.86 101 224.86C102.46 224.86 103.86 224.63 105.2 224.18C106.54 223.72 107.78 222.96 108.93 221.89L111.16 224.86C109.81 226.01 108.22 226.87 106.41 227.46C104.6 228.05 102.73 228.34 100.8 228.34ZM107.4 224.35V214.19H111.15V224.86L107.4 224.35Z" fill="white"/>
<path d="M120.17 224.63H136.11V228.03H116.26V200.68H135.56V204.08H120.17V224.63ZM119.82 212.48H133.88V215.8H119.82V212.48Z" fill="white"/>
<path d="M140.1 228.02V200.67H143.3L161.39 223.13H159.71V200.67H163.62V228.02H160.42L142.33 205.56H144.01V228.02H140.1Z" fill="white"/>
<path d="M181.7 228.34C179.62 228.34 177.7 228 175.94 227.3C174.18 226.61 172.66 225.63 171.37 224.37C170.08 223.11 169.07 221.63 168.34 219.94C167.61 218.25 167.25 216.38 167.25 214.35C167.25 212.32 167.61 210.46 168.34 208.76C169.07 207.07 170.08 205.59 171.39 204.33C172.69 203.07 174.22 202.09 175.98 201.4C177.74 200.71 179.66 200.36 181.74 200.36C183.82 200.36 185.8 200.72 187.58 201.44C189.36 202.16 190.88 203.22 192.13 204.62L189.59 207.08C188.55 205.99 187.38 205.17 186.07 204.64C184.77 204.11 183.37 203.84 181.89 203.84C180.41 203.84 178.93 204.1 177.61 204.62C176.29 205.14 175.15 205.87 174.19 206.81C173.23 207.75 172.48 208.86 171.94 210.15C171.41 211.44 171.14 212.84 171.14 214.35C171.14 215.86 171.41 217.26 171.94 218.55C172.47 219.84 173.22 220.95 174.19 221.89C175.15 222.83 176.29 223.56 177.61 224.08C178.93 224.6 180.35 224.86 181.89 224.86C183.43 224.86 184.77 224.59 186.07 224.06C187.37 223.53 188.54 222.7 189.59 221.58L192.13 224.04C190.88 225.45 189.36 226.52 187.58 227.24C185.8 227.97 183.84 228.33 181.7 228.33V228.34Z" fill="white"/>
<path d="M201.51 228.02V217.55L202.41 219.97L190.65 200.67H194.83L204.71 216.96H202.44L212.36 200.67H216.23L204.51 219.97L205.37 217.55V228.02H201.5H201.51Z" fill="white"/>
</svg>
