<svg width="430" height="932" viewBox="0 0 430 932" fill="none" xmlns="http://www.w3.org/2000/svg">
<g clip-path="url(#clip0_188_18952)">
<rect width="430" height="932" fill="#101828"/>
<path d="M23 0L44.6506 37.5H1.34937L23 0Z" fill="#4F5356"/>
<path d="M108 75L129.651 37.5H86.3494L108 75Z" fill="#4F5356"/>
<path d="M23 225L44.6506 187.5H1.34937L23 225Z" fill="white"/>
<path d="M44.5 187L66.5836 149.5H22.4164L44.5 187Z" fill="#4F5356"/>
<path d="M65.5 150L87.5836 187.5H43.4164L65.5 150Z" fill="#080D10"/>
<path d="M87 38L65.3494 75.5H108.651L87 38Z" fill="#6E7072"/>
<path d="M45 187L22.4833 224.5H67.5167L45 187Z" fill="#6E7072"/>
<path d="M194 75L172.349 112.5H215.651L194 75Z" fill="#6E7072"/>
<path d="M23 75L1.34937 112.5H44.6506L23 75Z" fill="#686B6D"/>
<path d="M151 0L129.349 37.5H172.651L151 0Z" fill="#212222"/>
<path d="M66 0L44.3494 37.5H87.6506L66 0Z" fill="#515252"/>
<path d="M87 113L65.3494 150.5H108.651L87 113Z" fill="#26292B"/>
<path d="M87 113L65.3494 150.5H108.651L87 113Z" fill="#26292B"/>
<path d="M87 113L65.3494 150.5H108.651L87 113Z" fill="#26292B"/>
<path d="M87 113L65.3494 150.5H108.651L87 113Z" fill="#26292B"/>
<path d="M151 75L129.349 37.5H172.651L151 75Z" fill="#373737"/>
<path d="M44 38L22.3494 75.5H65.6506L44 38Z" fill="#989999"/>
<path d="M23.5 150L1.41635 187.5H45.5836L23.5 150Z" fill="#989999"/>
<path d="M151 74L129.349 112.25H172.651L151 74Z" fill="white"/>
<path d="M23.5 150L1.41635 111.75H45.5836L23.5 150Z" fill="white"/>
<path d="M172.731 36.9935L194.382 75.5563L149.989 74.9229L172.731 36.9935Z" fill="#101828"/>
<path d="M129.5 38L107.416 76.25H151.584L129.5 38Z" fill="white"/>
<path d="M129.5 113L151.584 74.75H107.416L129.5 113Z" fill="#6D6E6E"/>
<path d="M65.5 76L43.4164 37.75H87.5836L65.5 76Z" fill="white"/>
<path d="M65.5 151L43.4164 112H87.5836L65.5 151Z" fill="white"/>
<path d="M194.5 76L172.416 37.75H216.584L194.5 76Z" fill="white"/>
<path d="M87.5 37L65.4164 -1.25H109.584L87.5 37Z" fill="white"/>
<path d="M173 39L195.517 0H150.483L173 39Z" fill="#4F5356"/>
<path d="M216.5 39L194.416 -1.5H238.584L216.5 39Z" fill="white"/>
<path d="M108 75L86.3494 112.5H129.651L108 75Z" fill="#2D2E2F"/>
<path d="M108 75L86.3494 112.5H129.651L108 75Z" fill="#3C3D3D"/>
<path d="M238 0L216.349 38.1H259.651L238 0Z" fill="#2D2E2F"/>
<path d="M195 -0.999998L173.349 38L216.651 38L195 -0.999998Z" fill="#2D2E2F"/>
<path d="M108 150L86.3494 187.5L129.651 187.5L108 150Z" fill="#2D2E2F"/>
<path d="M109 0L130.651 37.5H87.3494L109 0Z" fill="#101828"/>
<path d="M44.725 112.357L65.8277 150.912L22.5308 150.294L44.725 112.357Z" fill="#101828"/>
<path d="M87 113L108.651 75.5H65.3494L87 113Z" fill="#23292D"/>
<path d="M66 75L87.6506 112.5H44.3494L66 75Z" fill="#6D6E6E"/>
<path d="M173 113L194.651 74.75H151.349L173 113Z" fill="#23292D"/>
<path d="M151.5 151L173.584 112H129.416L151.5 151Z" fill="#23292D"/>
<path d="M44.5 38L22.4164 -0.25H66.5836L44.5 38Z" fill="#151719"/>
<path d="M130 37L151.651 -0.5H108.349L130 37Z" fill="#56595B"/>
<path d="M45 113L66.6506 75.5H23.3494L45 113Z" fill="#111111"/>
<path d="M23 75L44.6506 37.5H1.34937L23 75Z" fill="#2C2C2C"/>
<path d="M409 932L387.349 894.5H430.651L409 932Z" fill="#4F5356"/>
<path d="M324 857L302.349 894.5H345.651L324 857Z" fill="#4F5356"/>
<path d="M409 707L387.349 744.5H430.651L409 707Z" fill="white"/>
<path d="M387.5 745L365.416 782.5H409.584L387.5 745Z" fill="#4F5356"/>
<path d="M366.5 782L344.416 744.5H388.584L366.5 782Z" fill="#080D10"/>
<path d="M345 894L366.651 856.5H323.349L345 894Z" fill="#6E7072"/>
<path d="M387 745L409.517 707.5H364.483L387 745Z" fill="#6E7072"/>
<path d="M238 857L259.651 819.5H216.349L238 857Z" fill="#6E7072"/>
<path d="M409 857L430.651 819.5H387.349L409 857Z" fill="#686B6D"/>
<path d="M281 932L302.651 894.5H259.349L281 932Z" fill="#212222"/>
<path d="M366 932L387.651 894.5H344.349L366 932Z" fill="#515252"/>
<path d="M345 819L366.651 781.5H323.349L345 819Z" fill="#26292B"/>
<path d="M345 819L366.651 781.5H323.349L345 819Z" fill="#26292B"/>
<path d="M345 819L366.651 781.5H323.349L345 819Z" fill="#26292B"/>
<path d="M345 819L366.651 781.5H323.349L345 819Z" fill="#26292B"/>
<path d="M281 857L302.651 894.5H259.349L281 857Z" fill="#373737"/>
<path d="M388 894L409.651 856.5H366.349L388 894Z" fill="#989999"/>
<path d="M408.5 782L430.584 744.5H386.416L408.5 782Z" fill="#989999"/>
<path d="M281 858L302.651 819.75H259.349L281 858Z" fill="white"/>
<path d="M408.5 782L430.584 820.25H386.416L408.5 782Z" fill="white"/>
<path d="M259.269 895.006L237.618 856.444L282.011 857.077L259.269 895.006Z" fill="#101828"/>
<path d="M302.5 894L324.584 855.75H280.416L302.5 894Z" fill="white"/>
<path d="M302.5 819L280.416 857.25H324.584L302.5 819Z" fill="#6D6E6E"/>
<path d="M366.5 856L388.584 894.25H344.416L366.5 856Z" fill="white"/>
<path d="M366.5 781L388.584 820H344.416L366.5 781Z" fill="white"/>
<path d="M237.5 856L259.584 894.25H215.416L237.5 856Z" fill="white"/>
<path d="M344.5 895L366.584 933.25H322.416L344.5 895Z" fill="white"/>
<path d="M259 893L236.483 932H281.517L259 893Z" fill="#4F5356"/>
<path d="M215.5 893L237.584 932.75H193.416L215.5 893Z" fill="white"/>
<path d="M324 857L345.651 819.5H302.349L324 857Z" fill="#2D2E2F"/>
<path d="M324 857L345.651 819.5H302.349L324 857Z" fill="#3C3D3D"/>
<path d="M194 932L215.651 893.9H172.349L194 932Z" fill="#2D2E2F"/>
<path d="M237 933L258.651 894L215.349 894L237 933Z" fill="#2D2E2F"/>
<path d="M324 782L345.651 744.5L302.349 744.5L324 782Z" fill="#2D2E2F"/>
<path d="M323 932L301.349 894.5H344.651L323 932Z" fill="#101828"/>
<path d="M387.275 819.643L366.172 781.088L409.469 781.706L387.275 819.643Z" fill="#101828"/>
<path d="M345 819L323.349 856.5H366.651L345 819Z" fill="#23292D"/>
<path d="M366 857L344.349 819.5H387.651L366 857Z" fill="#6D6E6E"/>
<path d="M259 819L237.349 857.25H280.651L259 819Z" fill="#23292D"/>
<path d="M280.5 781L258.416 820H302.584L280.5 781Z" fill="#23292D"/>
<path d="M387.5 894L409.584 932.25H365.416L387.5 894Z" fill="#151719"/>
<path d="M302 895L280.349 932.5H323.651L302 895Z" fill="#56595B"/>
<path d="M387 819L365.349 856.5H408.651L387 819Z" fill="#111111"/>
<path d="M325 783L303.349 820.5H346.651L325 783Z" fill="#111111"/>
<path d="M409 857L387.349 894.5H430.651L409 857Z" fill="#2C2C2C"/>
<path d="M140.91 417.27L150.92 410.04H172.1V477.76L168 481.38L192.73 495.75V388.72H140.91V417.27Z" fill="white"/>
<path d="M216.18 352H131.17V381.36L141.63 374.14H204.23V499.71L216.18 506.75L228.13 499.71V374.14H290.73L301.19 381.36V352H216.18Z" fill="white"/>
<path d="M239.63 495.75L264.36 481.38L260.26 477.76V410.04H281.45L291.45 417.27V388.72H239.63V495.75Z" fill="white"/>
<path d="M87.69 544.93V520.37H78V514.66H104.38V520.37H94.69V544.93H87.69Z" fill="white"/>
<path d="M123.28 545.45C120.89 545.45 118.67 545.06 116.64 544.28C114.61 543.5 112.85 542.41 111.36 540.99C109.88 539.58 108.72 537.92 107.9 536.02C107.08 534.12 106.67 532.04 106.67 529.79C106.67 527.54 107.08 525.47 107.9 523.56C108.72 521.66 109.88 520 111.38 518.59C112.88 517.18 114.64 516.08 116.66 515.3C118.68 514.52 120.87 514.13 123.23 514.13C125.59 514.13 127.82 514.52 129.82 515.3C131.82 516.08 133.57 517.17 135.05 518.59C136.53 520 137.69 521.65 138.53 523.54C139.37 525.43 139.78 527.51 139.78 529.79C139.78 532.07 139.36 534.12 138.53 536.04C137.69 537.96 136.53 539.61 135.05 541.01C133.57 542.41 131.82 543.5 129.82 544.27C127.82 545.05 125.63 545.44 123.27 545.44L123.28 545.45ZM123.24 539.48C124.59 539.48 125.84 539.25 126.98 538.79C128.12 538.33 129.12 537.67 129.98 536.8C130.85 535.93 131.52 534.91 131.99 533.73C132.47 532.55 132.7 531.24 132.7 529.8C132.7 528.36 132.46 527.05 131.99 525.86C131.51 524.68 130.85 523.65 130 522.79C129.15 521.93 128.15 521.26 127 520.8C125.85 520.34 124.59 520.11 123.24 520.11C121.89 520.11 120.64 520.34 119.5 520.8C118.36 521.26 117.36 521.92 116.49 522.79C115.62 523.66 114.95 524.68 114.48 525.86C114 527.04 113.77 528.35 113.77 529.8C113.77 531.25 114.01 532.52 114.48 533.71C114.95 534.9 115.62 535.94 116.47 536.8C117.32 537.67 118.32 538.33 119.47 538.79C120.62 539.25 121.88 539.48 123.23 539.48H123.24Z" fill="white"/>
<path d="M145.94 544.93V514.66H159.04C161.75 514.66 164.08 515.1 166.04 515.98C168 516.86 169.51 518.12 170.58 519.76C171.65 521.4 172.18 523.36 172.18 525.64C172.18 527.92 171.65 529.83 170.58 531.48C169.51 533.12 168 534.38 166.04 535.26C164.08 536.14 161.74 536.58 159.04 536.58H149.83L152.94 533.42V544.92H145.94V544.93ZM152.94 534.2L149.83 530.87H158.65C160.81 530.87 162.43 530.41 163.49 529.49C164.56 528.57 165.09 527.28 165.09 525.64C165.09 524 164.56 522.67 163.49 521.75C162.42 520.83 160.81 520.37 158.65 520.37H149.83L152.94 517.04V534.21V534.2Z" fill="white"/>
<path d="M183.47 544.93V520.37H173.78V514.66H200.16V520.37H190.47V544.93H183.47Z" fill="white"/>
<path d="M199.3 544.93L212.79 514.66H219.71L233.24 544.93H225.89L214.82 518.21H217.59L206.48 544.93H199.3ZM206.05 538.44L207.91 533.12H223.48L225.38 538.44H206.05Z" fill="white"/>
<path d="M237.27 544.93V514.66H244.27V539.22H259.45V544.93H237.27Z" fill="white"/>
<path d="M271.21 539.31H287.68V544.93H264.24V514.66H287.11V520.28H271.2V539.31H271.21ZM270.69 526.85H285.26V532.3H270.69V526.85Z" fill="white"/>
<path d="M294.13 544.93V514.66H299.92L317.78 536.45H314.97V514.66H321.89V544.93H316.14L298.24 523.14H301.05V544.93H294.13Z" fill="white"/>
<path d="M336.2 544.93V520.37H326.51V514.66H352.89V520.37H343.2V544.93H336.2Z" fill="white"/>
<path d="M136.45 580.02L148.83 552.67H152.7L165.12 580.02H161.02L149.96 554.86H151.52L140.46 580.02H136.44H136.45ZM141.72 573.19L142.77 570.07H158.16L159.29 573.19H141.71H141.72Z" fill="white"/>
<path d="M178.8 580.34C176.69 580.34 174.75 580 172.98 579.3C171.21 578.61 169.67 577.63 168.37 576.37C167.07 575.11 166.05 573.63 165.32 571.94C164.59 570.25 164.23 568.38 164.23 566.35C164.23 564.32 164.59 562.46 165.32 560.76C166.05 559.07 167.07 557.59 168.39 556.33C169.71 555.07 171.25 554.09 173.02 553.4C174.79 552.71 176.74 552.36 178.88 552.36C181.02 552.36 183.02 552.71 184.82 553.42C186.62 554.12 188.14 555.18 189.39 556.58L186.97 559C185.85 557.91 184.63 557.11 183.32 556.6C182 556.09 180.58 555.84 179.04 555.84C177.5 555.84 176.03 556.1 174.68 556.62C173.34 557.14 172.18 557.87 171.2 558.81C170.22 559.75 169.47 560.86 168.93 562.15C168.4 563.44 168.13 564.84 168.13 566.35C168.13 567.86 168.4 569.22 168.93 570.51C169.46 571.8 170.22 572.92 171.2 573.87C172.18 574.82 173.33 575.56 174.66 576.08C175.99 576.6 177.43 576.86 179 576.86C180.46 576.86 181.86 576.63 183.2 576.18C184.54 575.72 185.78 574.96 186.93 573.89L189.16 576.86C187.81 578.01 186.22 578.87 184.41 579.46C182.6 580.05 180.73 580.34 178.8 580.34ZM185.4 576.35V566.19H189.15V576.86L185.4 576.35Z" fill="white"/>
<path d="M198.17 576.63H214.11V580.03H194.26V552.68H213.56V556.08H198.17V576.63ZM197.82 564.48H211.88V567.8H197.82V564.48Z" fill="white"/>
<path d="M218.1 580.02V552.67H221.3L239.39 575.13H237.71V552.67H241.62V580.02H238.42L220.33 557.56H222.01V580.02H218.1Z" fill="white"/>
<path d="M259.7 580.34C257.62 580.34 255.7 580 253.94 579.3C252.18 578.61 250.66 577.63 249.37 576.37C248.08 575.11 247.07 573.63 246.34 571.94C245.61 570.25 245.25 568.38 245.25 566.35C245.25 564.32 245.61 562.46 246.34 560.76C247.07 559.07 248.08 557.59 249.39 556.33C250.69 555.07 252.22 554.09 253.98 553.4C255.74 552.71 257.66 552.36 259.74 552.36C261.82 552.36 263.8 552.72 265.58 553.44C267.36 554.16 268.88 555.22 270.13 556.62L267.59 559.08C266.55 557.99 265.38 557.17 264.07 556.64C262.77 556.11 261.37 555.84 259.89 555.84C258.41 555.84 256.93 556.1 255.61 556.62C254.29 557.14 253.15 557.87 252.19 558.81C251.23 559.75 250.48 560.86 249.94 562.15C249.41 563.44 249.14 564.84 249.14 566.35C249.14 567.86 249.41 569.26 249.94 570.55C250.47 571.84 251.22 572.95 252.19 573.89C253.15 574.83 254.29 575.56 255.61 576.08C256.93 576.6 258.35 576.86 259.89 576.86C261.43 576.86 262.77 576.59 264.07 576.06C265.37 575.53 266.54 574.7 267.59 573.58L270.13 576.04C268.88 577.45 267.36 578.52 265.58 579.24C263.8 579.97 261.84 580.33 259.7 580.33V580.34Z" fill="white"/>
<path d="M279.51 580.02V569.55L280.41 571.97L268.65 552.67H272.83L282.71 568.96H280.44L290.36 552.67H294.23L282.51 571.97L283.37 569.55V580.02H279.5H279.51Z" fill="white"/>
</g>
<defs>
<clipPath id="clip0_188_18952">
<rect width="430" height="932" fill="white"/>
</clipPath>
</defs>
</svg>
